<svg width="30" height="40" viewBox="0 0 30 40" fill="none" xmlns="http://www.w3.org/2000/svg">
<path d="M24.2444 38.2186L23.6592 39.0295L23.6592 39.0295L24.2444 38.2186ZM24.2444 1.78144L24.8296 2.59233L24.2444 1.78144ZM2.37079 17.5673L2.956 18.3782L2.956 18.3782L2.37079 17.5673ZM2.3708 22.4327L2.956 21.6218L2.956 21.6218L2.3708 22.4327ZM2.956 18.3782L24.8296 2.59233L23.6592 0.970555L1.78559 16.7565L2.956 18.3782ZM28 4.21409V35.7859H30V4.21409H28ZM24.8296 37.4077L2.956 21.6218L1.78559 23.2435L23.6592 39.0295L24.8296 37.4077ZM28 35.7859C28 37.4171 26.1523 38.3623 24.8296 37.4077L23.6592 39.0295C26.3046 40.9386 30 39.0483 30 35.7859H28ZM24.8296 2.59233C26.1523 1.63773 28 2.58288 28 4.21409H30C30 0.951656 26.3046 -0.938637 23.6592 0.970555L24.8296 2.59233ZM1.78559 16.7565C-0.42665 18.353 -0.426645 21.647 1.78559 23.2435L2.956 21.6218C1.84988 20.8235 1.84988 19.1765 2.956 18.3782L1.78559 16.7565Z" fill="white"/>
</svg>
